HIERARCHY
ROOT Hips
{
	OFFSET -0.001795 -0.223333 0.028219
	CHANNELS 6 Xposition Yposition Zposition Zrotation Yrotation Xrotation 
	JOINT LeftUpLeg
	{
		OFFSET 0.069520 -0.091406 -0.006815
		CHANNELS 3 Zrotation Yrotation Xrotation
		JOINT LeftLeg
		{
			OFFSET 0.034277 -0.375199 -0.004496
			CHANNELS 3 Zrotation Yrotation Xrotation
			JOINT LeftFoot
			{
				OFFSET -0.013596 -0.397961 -0.043693
				CHANNELS 3 Zrotation Yrotation Xrotation
				JOINT LeftToe
				{
					OFFSET 0.026358 -0.055791 0.119288
					CHANNELS 3 Zrotation Yrotation Xrotation
					End Site
					{
						OFFSET 0.000000 0.000000 0.000000
					}
				}
			}
		}
	}
	JOINT RightUpLeg
	{
		OFFSET -0.067670 -0.090522 -0.004320
		CHANNELS 3 Zrotation Yrotation Xrotation
		JOINT RightLeg
		{
			OFFSET -0.038290 -0.382569 -0.008850
			CHANNELS 3 Zrotation Yrotation Xrotation
			JOINT RightFoot
			{
				OFFSET 0.015774 -0.398415 -0.042312
				CHANNELS 3 Zrotation Yrotation Xrotation
				JOINT RightToe
				{
					OFFSET -0.025372 -0.048144 0.123348
					CHANNELS 3 Zrotation Yrotation Xrotation
					End Site
					{
						OFFSET 0.000000 0.000000 0.000000
					}
				}
			}
		}
	}
	JOINT Spine
	{
		OFFSET -0.002533 0.108963 -0.026696
		CHANNELS 3 Zrotation Yrotation Xrotation
		JOINT Spine1
		{
			OFFSET 0.005487 0.135180 0.001092
			CHANNELS 3 Zrotation Yrotation Xrotation
			JOINT Spine2
			{
				OFFSET 0.001457 0.052922 0.025425
				CHANNELS 3 Zrotation Yrotation Xrotation
				JOINT Neck
				{
					OFFSET -0.002778 0.213870 -0.042857
					CHANNELS 3 Zrotation Yrotation Xrotation
					JOINT Head
					{
						OFFSET 0.005152 0.064970 0.051349
						CHANNELS 3 Zrotation Yrotation Xrotation
						End Site
						{
							OFFSET 0.000000 0.000000 0.000000
						}
					}
				}
				JOINT LeftShoulder
				{
					OFFSET 0.078845 0.121749 -0.034090
					CHANNELS 3 Zrotation Yrotation Xrotation
					JOINT LeftArm
					{
						OFFSET 0.090977 0.030469 -0.008868
						CHANNELS 3 Zrotation Yrotation Xrotation
						JOINT LeftForeArm
						{
							OFFSET 0.259612 -0.012772 -0.027456
							CHANNELS 3 Zrotation Yrotation Xrotation
							JOINT LeftHand
							{
								OFFSET 0.249234 0.008986 -0.001171
								CHANNELS 3 Zrotation Yrotation Xrotation
								End Site
								{
									OFFSET 0.000000 0.000000 0.000000
								}
							}
						}
					}
				}
				JOINT RightShoulder
				{
					OFFSET -0.081759 0.118833 -0.038615
					CHANNELS 3 Zrotation Yrotation Xrotation
					JOINT RightArm
					{
						OFFSET -0.096012 0.032551 -0.009143
						CHANNELS 3 Zrotation Yrotation Xrotation
						JOINT RightForeArm
						{
							OFFSET -0.253742 -0.013329 -0.021401
							CHANNELS 3 Zrotation Yrotation Xrotation
							JOINT RightHand
							{
								OFFSET -0.255298 0.007772 -0.005559
								CHANNELS 3 Zrotation Yrotation Xrotation
								End Site
								{
									OFFSET 0.000000 0.000000 0.000000
								}
							}
						}
					}
				}
			}
		}
	}
}
MOTION
Frames: 13
Frame Time: 0.050000
-0.055284 0.931053 -0.024244 0.958655 39.768355 3.346136 5.770506 -1.480693 -14.556089 0.088089 -1.071900 11.936533 -4.330571 -0.428550 8.775033 0.000000 0.000000 0.000000 -4.963021 -0.768883 -19.875133 -5.293204 0.452886 17.699521 11.195451 9.808324 34.208836 0.000000 0.000000 0.000000 9.648338 -2.347871 11.064631 -2.501396 1.456966 -4.599376 -2.610855 11.216359 8.214488 12.652515 -3.502920 -15.351223 0.000000 0.000000 0.000000 15.944534 -18.775546 8.812233 -8.725205 -34.263983 -2.865980 115.448992 -44.584885 -84.617479 0.000000 0.000000 0.000000 -17.146631 2.448815 -3.095119 19.342910 9.618325 -0.505933 -76.800122 35.871003 -8.441027 0.000000 0.000000 0.000000 
-0.055230 0.932422 -0.022976 1.141455 39.134682 3.204415 5.645507 -1.392267 -13.922736 0.085054 -1.023203 11.647731 -4.252668 -0.011394 9.154298 0.000000 0.000000 0.000000 -5.143303 -0.768238 -19.835704 -5.114391 0.416579 17.969995 11.627490 9.956154 34.785847 0.000000 0.000000 0.000000 9.786517 -2.553439 11.958090 -3.278742 1.807597 -5.327341 -3.089050 10.678756 8.909491 12.791515 -3.279087 -16.524013 0.000000 0.000000 0.000000 16.206532 -18.268084 8.736055 -9.026457 -32.635285 -2.492221 117.659893 -44.760786 -87.353597 0.000000 0.000000 0.000000 -19.211571 0.984053 -3.826832 19.132682 7.182615 -0.778069 -76.061768 40.325858 -11.370947 0.000000 0.000000 0.000000 
-0.054714 0.938842 -0.021657 1.464872 39.319357 3.903867 5.003798 -1.330627 -13.336095 0.820748 -0.875724 9.705936 -5.245395 0.015723 11.119148 0.000000 0.000000 0.000000 -5.309359 -0.784674 -19.517340 -5.111570 0.512790 16.632059 11.648020 9.444481 36.472395 0.000000 0.000000 0.000000 9.892536 -2.480500 11.415709 -3.667519 1.945292 -5.459682 -3.660205 9.836461 8.743827 13.141621 -3.785297 -15.901452 0.000000 0.000000 0.000000 16.491399 -17.820146 8.683080 -8.960823 -29.351214 -1.970068 119.528633 -44.177913 -88.857538 0.000000 0.000000 0.000000 -22.643585 -0.096115 -4.554846 17.451741 4.281546 -1.065884 -72.309085 45.557008 -13.494182 0.000000 0.000000 0.000000 
-0.053887 0.946374 -0.020312 2.019122 39.475934 4.818377 4.868923 -1.323999 -13.222659 -0.511067 -0.772445 10.173702 -4.165944 0.695781 9.759215 0.000000 0.000000 0.000000 -5.668851 -0.829085 -19.016607 -5.295338 0.697560 14.600706 12.574308 9.276029 39.384063 0.000000 0.000000 0.000000 9.927555 -2.316035 10.527966 -4.487031 2.176647 -4.905769 -3.933313 9.459970 8.272605 13.831987 -4.454943 -15.439785 0.000000 0.000000 0.000000 17.353951 -16.573491 8.692536 -8.566611 -26.991267 -1.709097 119.825195 -42.524698 -87.339978 0.000000 0.000000 0.000000 -25.634641 -1.861786 -5.169454 15.803915 1.341512 -1.233373 -68.920898 51.165539 -15.533311 0.000000 0.000000 0.000000 
-0.052979 0.951265 -0.019193 2.140883 39.849424 5.688827 4.678995 -1.343929 -13.276385 -1.119407 -0.744502 10.469996 -2.915155 1.164646 7.719553 0.000000 0.000000 0.000000 -5.601612 -0.815135 -18.787764 -5.854624 0.926386 12.511788 14.154748 9.525767 42.422498 0.000000 0.000000 0.000000 9.720441 -2.158602 9.820176 -4.726523 2.267034 -5.260682 -4.667547 10.097621 8.559855 14.012342 -4.668216 -14.834326 0.000000 0.000000 0.000000 19.920353 -13.785674 9.157404 -9.060414 -27.515810 -1.867820 121.154735 -40.558119 -88.310202 0.000000 0.000000 0.000000 -27.389840 -4.290714 -6.016709 15.646113 -2.235821 -1.420797 -65.074906 56.253596 -15.830671 0.000000 0.000000 0.000000 
-0.052181 0.953964 -0.018423 2.028928 39.824969 6.233706 4.466762 -1.415360 -13.837035 -1.533958 -0.894101 12.159254 -1.134285 2.083014 5.136656 0.000000 0.000000 0.000000 -5.861606 -0.943314 -19.505097 -5.844427 0.949807 11.971023 17.521756 10.311286 46.551192 0.000000 0.000000 0.000000 9.839026 -2.131874 9.469348 -5.169126 2.342385 -4.365274 -4.606881 10.293452 7.758794 13.871750 -4.645348 -14.656762 0.000000 0.000000 0.000000 19.342247 -11.447443 8.762051 -9.728251 -27.460688 -1.707831 122.230250 -39.885039 -88.159371 0.000000 0.000000 0.000000 -26.898788 -5.768163 -6.131851 15.692586 -4.171378 -1.485371 -66.915987 60.803202 -19.542609 0.000000 0.000000 0.000000 
-0.051913 0.955741 -0.017980 2.396041 39.721859 6.299037 3.775761 -1.484371 -14.348910 -2.032540 -1.219400 15.150519 0.698076 3.321796 2.705169 0.000000 0.000000 0.000000 -6.340822 -1.111318 -19.913096 -6.348378 1.063632 12.200108 21.972213 11.233324 50.940722 0.000000 0.000000 0.000000 9.483821 -2.239081 10.346342 -5.493611 2.426505 -3.912298 -4.714849 10.503883 8.179959 13.233918 -4.202421 -14.665418 0.000000 0.000000 0.000000 18.504565 -8.983892 8.242395 -12.328395 -27.724843 -1.354895 125.889138 -39.489188 -91.694261 0.000000 0.000000 0.000000 -25.284980 -6.588931 -6.218005 17.900644 -7.419690 -1.813298 -72.441611 65.504911 -26.234875 0.000000 0.000000 0.000000 
-0.052498 0.956422 -0.017591 2.882187 39.261085 6.649614 2.797202 -1.599279 -15.051501 -1.713998 -1.532575 16.980038 2.576461 7.744082 4.262352 0.000000 0.000000 0.000000 -6.907279 -1.372871 -21.083354 -6.301180 1.023157 13.601375 24.082445 11.379661 53.015578 0.000000 0.000000 0.000000 9.141543 -2.342808 11.207929 -6.543749 2.706318 -2.644307 -4.120126 10.806122 7.060873 11.819619 -3.837001 -13.141406 0.000000 0.000000 0.000000 16.683631 -7.448114 7.436092 -15.236147 -27.542167 -0.846628 130.949092 -41.073991 -99.060963 0.000000 0.000000 0.000000 -24.275929 -6.543896 -5.969865 20.919938 -9.475267 -2.161842 -78.390413 70.404313 -34.813482 0.000000 0.000000 0.000000 
-0.054281 0.953871 -0.017240 3.175122 39.389632 6.813982 2.086915 -1.779994 -16.013610 -1.504531 -1.981540 19.360854 3.231917 10.249831 6.526164 0.000000 0.000000 0.000000 -6.823962 -1.558500 -22.515073 -6.701052 0.992502 16.303784 23.723868 11.680730 51.912678 0.000000 0.000000 0.000000 9.401113 -2.636879 12.301298 -6.667298 2.767958 -2.910599 -4.647452 11.716176 7.126355 11.708812 -3.596951 -13.355769 0.000000 0.000000 0.000000 15.423605 -6.846434 7.072343 -17.361946 -28.043530 -0.613281 134.733399 -41.774425 -105.340420 0.000000 0.000000 0.000000 -23.050661 -6.056683 -5.971996 23.502897 -11.676091 -2.523640 -82.416907 74.910954 -41.742554 0.000000 0.000000 0.000000 
-0.056835 0.945045 -0.017177 3.470787 39.801584 6.423196 1.787721 -2.016457 -17.232946 -2.684655 -2.571889 23.673282 4.636731 12.706402 7.064712 0.000000 0.000000 0.000000 -6.175093 -1.709359 -24.501214 -8.143556 1.009808 21.712517 22.047955 13.018856 47.127437 0.000000 0.000000 0.000000 9.187611 -2.923679 13.801930 -6.486777 2.708739 -2.817155 -4.888607 12.905055 7.212355 11.852175 -3.470104 -13.661579 0.000000 0.000000 0.000000 15.052887 -6.034678 6.977266 -19.278199 -29.022576 -0.496437 137.684794 -42.465424 -111.326894 0.000000 0.000000 0.000000 -22.236575 -6.292711 -6.243999 25.664558 -12.478825 -2.753912 -85.665723 75.661731 -44.391967 0.000000 0.000000 0.000000 
-0.059493 0.932020 -0.017312 3.178570 40.170790 5.296037 2.440092 -2.329928 -19.080520 -4.855530 -3.169211 29.085040 6.315171 15.118398 6.754593 0.000000 0.000000 0.000000 -5.215194 -1.767142 -26.461547 -9.933854 1.035774 27.561068 22.027256 15.187645 42.808944 0.000000 0.000000 0.000000 9.342218 -3.358679 15.523707 -6.368964 2.701850 -2.984099 -4.905128 13.407520 7.785081 12.102861 -2.804918 -15.828037 0.000000 0.000000 0.000000 14.135852 -6.713689 6.804572 -20.347794 -29.442380 -0.401384 139.843471 -43.685853 -116.367763 0.000000 0.000000 0.000000 -20.598312 -5.190665 -5.938132 27.250833 -12.735106 -3.007071 -96.209537 73.669228 -51.546186 0.000000 0.000000 0.000000 
-0.061872 0.917459 -0.017661 3.097521 40.731692 3.956469 3.106456 -2.598294 -20.622105 -7.320141 -3.626040 34.233798 8.248188 17.323192 4.788144 0.000000 0.000000 0.000000 -4.215085 -1.841388 -28.398866 -12.471903 1.259599 33.729964 22.345178 16.792227 39.929106 0.000000 0.000000 0.000000 8.958485 -3.723393 17.378285 -5.899460 2.530544 -2.577950 -5.055913 14.710335 7.710891 12.776528 -2.877391 -16.522571 0.000000 0.000000 0.000000 13.593971 -8.102151 6.983825 -22.075446 -29.962832 -0.226471 142.009845 -44.439111 -121.944989 0.000000 0.000000 0.000000 -18.109203 -5.075616 -5.803893 28.440100 -11.755665 -3.117635 -104.358797 72.390300 -56.846226 0.000000 0.000000 0.000000 
-0.064005 0.903640 -0.018319 2.937303 41.961468 3.197360 4.206947 -2.877592 -22.267976 -9.673855 -3.821109 37.954457 9.023903 17.973642 2.791983 0.000000 0.000000 0.000000 -3.355688 -1.947508 -29.824749 -15.062955 1.588321 38.478693 22.708440 19.524706 35.356209 0.000000 0.000000 0.000000 8.605370 -4.033793 18.737773 -5.255571 2.338481 -2.998457 -4.418745 15.318451 8.301487 13.334351 -2.614038 -17.996035 0.000000 0.000000 0.000000 12.363433 -9.654421 6.883752 -23.880224 -31.374198 -0.016163 143.375220 -46.178741 -126.997266 0.000000 0.000000 0.000000 -16.264214 -4.067354 -5.400002 30.524155 -10.342471 -3.224233 -116.420604 69.598192 -64.345020 0.000000 0.000000 0.000000 
